{"title":"Black.Swan.2010.720p.BRRip.x264.Feel-Free","uid":6222636,"size":2466792982,"categoryP":"video","categoryS":"hd___movies","magnet":"?xt=urn:btih:951d7cc7385a88fc4273e82c05a0c22aded0f185&amp;dn=Black.Swan.2010.720p.BRRip.x264.Feel-Free&amp;tr=udp%3A%2F%2Ftracker.openbittorrent.com%3A80&amp;tr=udp%3A%2F%2Fopen.demonii.com%3A1337&amp;tr=udp%3A%2F%2Ftracker.coppersurfer.tk%3A6969&amp;tr=udp%3A%2F%2Fexodus.desync.com%3A6969","seeders":0,"leechers":1,"uploader":"hiest","files":-1,"time":1299396280,"description":"\n #######                         #######                      \n #       ###### ###### #         #       #####  ###### ###### \n #       #      #      #         #       #    # #      #      \n #####   #####  #####  #         #####   #    # #####  #####  \n #       #      #      #         #       #####  #      #      \n #       #      #      #         #       #   #  #      #      \n #       ###### ###### ######    #       #    # ###### ###### \n\n\nGenre:Drama | Mystery | Thriller\nLanguage:English\nIMDb: &lt;a href=&quot;\nhttp://www.imdb.com/title/tt0947798/&quot; rel=&quot;nofollow&quot; target=&quot;_NEW&quot;&gt;\nhttp://www.imdb.com/title/tt0947798/&lt;/a&gt;\nSource:1080p.DTS.x264-CHD\nSubtitles:Romana\n\n\nFormat : MPEG-4\nFormat profile : Base Media\nCodec ID : isom\nFile size : 2.29 GiB\nDuration : 1h 48mn\nOverall bit rate : 3 038 Kbps\n\n\nVideo\nFormat profile : &lt;a class=&quot;__cf_email__&quot; href=&quot;/cdn-cgi/l/email-protection&quot; data-cfemail=&quot;99d1f0fef1d9d5adb7a8&quot;&gt;[email&amp;#160;protected]&lt;/a&gt;&lt;script cf-hash='f9e31' type=&quot;text/javascript&quot;&gt;\n/* &lt;![CDATA[ */!function(){try{var t=&quot;currentScript&quot;in document?document.currentScript:function(){for(var t=document.getElementsByTagName(&quot;script&quot;),e=t.length;e--;)if(t[e].getAttribute(&quot;cf-hash&quot;))return t[e]}();if(t&amp;&amp;t.previousSibling){var e,r,n,i,c=t.previousSibling,a=c.getAttribute(&quot;data-cfemail&quot;);if(a){for(e=&quot;&quot;,r=parseInt(a.substr(0,2),16),n=2;a.length-n;n+=2)i=parseInt(a.substr(n,2),16)^r,e+=String.fromCharCode(i);e=document.createTextNode(e),c.parentNode.replaceChild(e,c)}}}catch(u){}}();/* ]]&gt; */&lt;/script&gt;\nFormat settings, CABAC : Yes\nFormat settings, ReFrames : 3 frames\nCodec ID : avc1\nCodec ID/Info : Advanced Video Coding\nDuration : 1h 48mn\nBit rate mode : Variable\nBit rate : 2 629 Kbps\nMaximum bit rate : 24.2 Mbps\nWidth : 1 280 pixels\nHeight : 536 pixels\nDisplay aspect ratio : 2.35:1\nFrame rate mode : Constant\nFrame rate : 23.976 fps\nColor space : YUV\nChroma subsampling : 4:2:0\nBit depth : 8 bits\nScan type : Progressive\nBits/(Pixel*Frame) : 0.160\nStream size : 1.96 GiB (85%)\nWriting library : x264 \n\n\nAudio\nID : 2\nFormat : AAC\nFormat/Info : Advanced Audio Codec\nFormat version : Version 4\nFormat profile : LC\nFormat settings, SBR : No\nCodec ID : 40\nDuration : 1h 48mn\nBit rate mode : Variable\nBit rate : 443 Kbps\nMaximum bit rate : 572 Kbps\nChannel(s) : 6 channels\nChannel positions : Front: L C R, Side: L R, LFE\nSampling rate : 48.0 KHz\nStream size : 343 MiB (15%)\n\n\nPlot:\nA ballet dancer wins the lead in &quot;Swan Lake&quot; and is perfect for the role of the delicate White Swan - Princess Odette - but slowly loses her mind as she becomes more and more like Odile, the Black Swan\n\n\n\nGreets:\n\nINK,CRYS,IMAGINE,LKRG,FXG,3Li,FLAWL3SS,TA,iLLUSiON,ViSiON,LU,TheFalcon007,MYSTiC,PrisM,Noir,WBZ,LAP,Rx,Kingdom,SAFCuk009+Fabreezy,HDLiTE,TWiZTED,ExtraTorrentRG.ELEKTRI4KA,MAGNAT,CM8\nAnd to all the other p2p grps past and present\n\n\n\n\n\n================================== &lt;a href=&quot;\nhttp://thepiratebay.se/user/hiest&quot; rel=&quot;nofollow&quot; target=&quot;_NEW&quot;&gt;\nhttp://thepiratebay.se/user/hiest&lt;/a&gt;\n==================================\n\n\n\n\n\nScreen Shots:\n &lt;a href=&quot;\nhttp://www.postimg.com/30000/29556.jpg&quot; rel=&quot;nofollow&quot; target=&quot;_NEW&quot;&gt;\nhttp://www.postimg.com/30000/29556.jpg&lt;/a&gt;\n &lt;a href=&quot;\nhttp://www.postimg.com/30000/29559.jpg&quot; rel=&quot;nofollow&quot; target=&quot;_NEW&quot;&gt;\nhttp://www.postimg.com/30000/29559.jpg&lt;/a&gt;\n &lt;a href=&quot;\nhttp://www.postimg.com/30000/29560.jpg&quot; rel=&quot;nofollow&quot; target=&quot;_NEW&quot;&gt;\nhttp://www.postimg.com/30000/29560.jpg&lt;/a&gt;\n\n\n #######                         #######                      \n #       ###### ###### #         #       #####  ###### ###### \n #       #      #      #         #       #    # #      #      \n #####   #####  #####  #         #####   #    # #####  #####  \n #       #      #      #         #       #####  #      #      \n #       #      #      #         #       #   #  #      #      \n #       ###### ###### ######    #       #    # ###### ###### \n","torrent":{"xt":"urn:btih:951d7cc7385a88fc4273e82c05a0c22aded0f185","amp;dn":"Black.Swan.2010.720p.BRRip.x264.Feel-Free","amp;tr":["udp%3A%2F%2Ftracker.openbittorrent.com%3A80","udp%3A%2F%2Fopen.demonii.com%3A1337","udp%3A%2F%2Ftracker.coppersurfer.tk%3A6969","udp%3A%2F%2Fexodus.desync.com%3A6969"],"infoHash":"951d7cc7385a88fc4273e82c05a0c22aded0f185","infoHashBuffer":{"type":"Buffer","data":[149,29,124,199,56,90,136,252,66,115,232,44,5,160,194,42,222,208,241,133]},"announce":[],"urlList":[]}}